<svg xmlns="http://www.w3.org/2000/svg" width="287" height="30" viewBox="0 0 287 30" fill="none"><mask id="path-1-inside-1_20_16" fill="white"><path d="M0.599976 0.999997H12.36C16.3866 0.999997 19.3866 1.58666 21.36 2.76C23.3333 3.90666 24.32 5.97333 24.32 8.96C24.32 12.2667 23.12 14.5467 20.72 15.8C18.48 16.9467 15.3466 17.52 11.32 17.52H11V28.24H16V29H0.599976V28.24H3.19998V1.76H0.599976V0.999997ZM11 1.76V16.76H11.84C13.44 16.76 14.5466 16.2133 15.16 15.12C15.7733 14.0267 16.08 12.2533 16.08 9.8V7.88C16.08 5.61333 15.7866 4.02666 15.2 3.12C14.64 2.21333 13.6 1.76 12.08 1.76H11ZM36.1915 20.48C36.1915 22.9333 36.6049 24.8133 37.4315 26.12C38.2849 27.4267 39.8049 28.08 41.9915 28.08C44.1782 28.08 45.8582 27.4 47.0315 26.04C48.2049 24.68 48.7915 22.6133 48.7915 19.84V1.76H46.1915V0.999997H52.0315V1.76H49.8315V19.56C49.8315 22.8667 49.0982 25.3333 47.6315 26.96C46.1649 28.5867 43.5649 29.4 39.8315 29.4C36.1249 29.4 33.2849 28.6267 31.3115 27.08C29.3649 25.5333 28.3915 22.88 28.3915 19.12V1.76H26.1915V0.999997H38.7915V1.76H36.1915V20.48ZM53.4962 0.999997H67.8962V1.88H63.6562V28.12H65.0962C67.3629 28.12 69.1629 27.4267 70.4962 26.04C71.8562 24.6533 73.2296 22.52 74.6162 19.64H75.4562L74.6962 29H53.4962V28.12H55.8562V1.88H53.4962V0.999997ZM96.1337 16.64V13.68C96.1337 8.8 95.8937 5.72 95.4137 4.44C94.8804 2.97333 94.1204 2.06666 93.1337 1.72C92.5737 1.50666 91.8937 1.4 91.0937 1.4C90.2937 1.4 89.6004 1.50666 89.0137 1.72C88.4537 1.93333 87.9871 2.30666 87.6137 2.84C87.2404 3.37333 86.9337 3.93333 86.6937 4.52C86.4804 5.10666 86.3071 5.93333 86.1737 7C86.0137 8.54666 85.9337 10.8267 85.9337 13.84V16.72C85.9337 19.9733 86.0537 22.2933 86.2937 23.68C86.5604 25.04 86.8804 26.0133 87.2537 26.6C88.0804 27.9067 89.3604 28.56 91.0937 28.56C93.2004 28.56 94.5604 27.68 95.1737 25.92C95.8137 24.1333 96.1337 21.04 96.1337 16.64ZM91.0137 29.4C86.5604 29.4 83.2271 28.2 81.0137 25.8C78.8271 23.3733 77.7337 19.88 77.7337 15.32C77.7337 10.7333 78.9071 7.13333 81.2537 4.52C83.6271 1.88 86.9737 0.559998 91.2937 0.559998C95.6137 0.559998 98.8671 1.81333 101.054 4.32C103.267 6.8 104.374 10.3333 104.374 14.92C104.374 19.5067 103.254 23.0667 101.014 25.6C98.8004 28.1333 95.4671 29.4 91.0137 29.4ZM141.763 14.52C141.763 20.0133 140.216 23.84 137.123 26C134.27 28 130.35 29 125.363 29H114.043V28.24H116.683V1.76H114.043V0.999997H126.403C131.523 0.999997 135.363 2.05333 137.923 4.16C140.483 6.24 141.763 9.69333 141.763 14.52ZM124.483 28.24H126.003C128.696 28.24 130.616 27.2933 131.763 25.4C132.936 23.48 133.523 20.28 133.523 15.8V13.48C133.523 7.48 132.376 3.86666 130.083 2.64C128.99 2.05333 127.443 1.76 125.443 1.76H124.483V28.24ZM163.438 16.64V13.68C163.438 8.8 163.198 5.72 162.718 4.44C162.185 2.97333 161.425 2.06666 160.438 1.72C159.878 1.50666 159.198 1.4 158.398 1.4C157.598 1.4 156.905 1.50666 156.318 1.72C155.758 1.93333 155.292 2.30666 154.918 2.84C154.545 3.37333 154.238 3.93333 153.998 4.52C153.785 5.10666 153.612 5.93333 153.478 7C153.318 8.54666 153.238 10.8267 153.238 13.84V16.72C153.238 19.9733 153.358 22.2933 153.598 23.68C153.865 25.04 154.185 26.0133 154.558 26.6C155.385 27.9067 156.665 28.56 158.398 28.56C160.505 28.56 161.865 27.68 162.478 25.92C163.118 24.1333 163.438 21.04 163.438 16.64ZM158.318 29.4C153.865 29.4 150.532 28.2 148.318 25.8C146.132 23.3733 145.038 19.88 145.038 15.32C145.038 10.7333 146.212 7.13333 148.558 4.52C150.932 1.88 154.278 0.559998 158.598 0.559998C162.918 0.559998 166.172 1.81333 168.358 4.32C170.572 6.8 171.678 10.3333 171.678 14.92C171.678 19.5067 170.558 23.0667 168.318 25.6C166.105 28.1333 162.772 29.4 158.318 29.4ZM196.108 28.6C197.414 28.6 198.241 28.36 198.588 27.88C198.961 27.4 199.148 26.5867 199.148 25.44V17.68H196.588V16.8H208.108V17.68H206.548V28.96H205.948C205.468 28.2933 204.788 27.96 203.908 27.96C203.534 27.96 202.414 28.2 200.548 28.68C198.708 29.16 197.134 29.4 195.828 29.4C191.481 29.4 188.108 28.2267 185.708 25.88C183.334 23.5333 182.148 20.0133 182.148 15.32C182.148 10.6 183.388 6.96 185.868 4.4C188.374 1.84 191.734 0.559998 195.948 0.559998C197.574 0.559998 199.201 0.773331 200.828 1.2C202.481 1.6 203.441 1.8 203.708 1.8C203.974 1.8 204.174 1.74666 204.308 1.64C204.441 1.50666 204.588 1.29333 204.748 0.999997H205.188L205.508 9.68H204.788C203.481 7.09333 202.161 5.06666 200.828 3.6C199.521 2.10666 198.054 1.36 196.428 1.36C192.348 1.36 190.308 5.34666 190.308 13.32V16.48C190.308 20.48 190.801 23.5067 191.788 25.56C192.801 27.5867 194.241 28.6 196.108 28.6ZM225.483 28.24L222.563 19.6H214.643L211.563 28.24H214.563V29H208.443V28.24H210.323L220.523 0.759997H223.803L233.883 28.24H235.723V29H222.643V28.24H225.483ZM218.763 8.24L215.003 18.72H222.243L218.763 8.24ZM257.432 0.999997L257.832 11.04H257.072C255.899 7.49333 254.859 5.08 253.952 3.8C253.045 2.49333 251.739 1.84 250.032 1.84H249.552V28.16H252.952V29H238.352V28.16H241.752V1.84H241.232C239.525 1.84 238.205 2.52 237.272 3.88C236.339 5.21333 235.312 7.6 234.192 11.04H233.432L233.832 0.999997H257.432ZM278.126 16.64V13.68C278.126 8.8 277.886 5.72 277.406 4.44C276.873 2.97333 276.113 2.06666 275.126 1.72C274.566 1.50666 273.886 1.4 273.086 1.4C272.286 1.4 271.593 1.50666 271.006 1.72C270.446 1.93333 269.979 2.30666 269.606 2.84C269.233 3.37333 268.926 3.93333 268.686 4.52C268.473 5.10666 268.299 5.93333 268.166 7C268.006 8.54666 267.926 10.8267 267.926 13.84V16.72C267.926 19.9733 268.046 22.2933 268.286 23.68C268.553 25.04 268.873 26.0133 269.246 26.6C270.073 27.9067 271.353 28.56 273.086 28.56C275.193 28.56 276.553 27.68 277.166 25.92C277.806 24.1333 278.126 21.04 278.126 16.64ZM273.006 29.4C268.553 29.4 265.219 28.2 263.006 25.8C260.819 23.3733 259.726 19.88 259.726 15.32C259.726 10.7333 260.899 7.13333 263.246 4.52C265.619 1.88 268.966 0.559998 273.286 0.559998C277.606 0.559998 280.859 1.81333 283.046 4.32C285.259 6.8 286.366 10.3333 286.366 14.92C286.366 19.5067 285.246 23.0667 283.006 25.6C280.793 28.1333 277.459 29.4 273.006 29.4Z"></path></mask><path d="M0.599976 0.999997H12.36C16.3866 0.999997 19.3866 1.58666 21.36 2.76C23.3333 3.90666 24.32 5.97333 24.32 8.96C24.32 12.2667 23.12 14.5467 20.72 15.8C18.48 16.9467 15.3466 17.52 11.32 17.52H11V28.24H16V29H0.599976V28.24H3.19998V1.76H0.599976V0.999997ZM11 1.76V16.76H11.84C13.44 16.76 14.5466 16.2133 15.16 15.12C15.7733 14.0267 16.08 12.2533 16.08 9.8V7.88C16.08 5.61333 15.7866 4.02666 15.2 3.12C14.64 2.21333 13.6 1.76 12.08 1.76H11ZM36.1915 20.48C36.1915 22.9333 36.6049 24.8133 37.4315 26.12C38.2849 27.4267 39.8049 28.08 41.9915 28.08C44.1782 28.08 45.8582 27.4 47.0315 26.04C48.2049 24.68 48.7915 22.6133 48.7915 19.84V1.76H46.1915V0.999997H52.0315V1.76H49.8315V19.56C49.8315 22.8667 49.0982 25.3333 47.6315 26.96C46.1649 28.5867 43.5649 29.4 39.8315 29.4C36.1249 29.4 33.2849 28.6267 31.3115 27.08C29.3649 25.5333 28.3915 22.88 28.3915 19.12V1.76H26.1915V0.999997H38.7915V1.76H36.1915V20.48ZM53.4962 0.999997H67.8962V1.88H63.6562V28.12H65.0962C67.3629 28.12 69.1629 27.4267 70.4962 26.04C71.8562 24.6533 73.2296 22.52 74.6162 19.64H75.4562L74.6962 29H53.4962V28.12H55.8562V1.88H53.4962V0.999997ZM96.1337 16.64V13.68C96.1337 8.8 95.8937 5.72 95.4137 4.44C94.8804 2.97333 94.1204 2.06666 93.1337 1.72C92.5737 1.50666 91.8937 1.4 91.0937 1.4C90.2937 1.4 89.6004 1.50666 89.0137 1.72C88.4537 1.93333 87.9871 2.30666 87.6137 2.84C87.2404 3.37333 86.9337 3.93333 86.6937 4.52C86.4804 5.10666 86.3071 5.93333 86.1737 7C86.0137 8.54666 85.9337 10.8267 85.9337 13.84V16.72C85.9337 19.9733 86.0537 22.2933 86.2937 23.68C86.5604 25.04 86.8804 26.0133 87.2537 26.6C88.0804 27.9067 89.3604 28.56 91.0937 28.56C93.2004 28.56 94.5604 27.68 95.1737 25.92C95.8137 24.1333 96.1337 21.04 96.1337 16.64ZM91.0137 29.4C86.5604 29.4 83.2271 28.2 81.0137 25.8C78.8271 23.3733 77.7337 19.88 77.7337 15.32C77.7337 10.7333 78.9071 7.13333 81.2537 4.52C83.6271 1.88 86.9737 0.559998 91.2937 0.559998C95.6137 0.559998 98.8671 1.81333 101.054 4.32C103.267 6.8 104.374 10.3333 104.374 14.92C104.374 19.5067 103.254 23.0667 101.014 25.6C98.8004 28.1333 95.4671 29.4 91.0137 29.4ZM141.763 14.52C141.763 20.0133 140.216 23.84 137.123 26C134.27 28 130.35 29 125.363 29H114.043V28.24H116.683V1.76H114.043V0.999997H126.403C131.523 0.999997 135.363 2.05333 137.923 4.16C140.483 6.24 141.763 9.69333 141.763 14.52ZM124.483 28.24H126.003C128.696 28.24 130.616 27.2933 131.763 25.4C132.936 23.48 133.523 20.28 133.523 15.8V13.48C133.523 7.48 132.376 3.86666 130.083 2.64C128.99 2.05333 127.443 1.76 125.443 1.76H124.483V28.24ZM163.438 16.64V13.68C163.438 8.8 163.198 5.72 162.718 4.44C162.185 2.97333 161.425 2.06666 160.438 1.72C159.878 1.50666 159.198 1.4 158.398 1.4C157.598 1.4 156.905 1.50666 156.318 1.72C155.758 1.93333 155.292 2.30666 154.918 2.84C154.545 3.37333 154.238 3.93333 153.998 4.52C153.785 5.10666 153.612 5.93333 153.478 7C153.318 8.54666 153.238 10.8267 153.238 13.84V16.72C153.238 19.9733 153.358 22.2933 153.598 23.68C153.865 25.04 154.185 26.0133 154.558 26.6C155.385 27.9067 156.665 28.56 158.398 28.56C160.505 28.56 161.865 27.68 162.478 25.92C163.118 24.1333 163.438 21.04 163.438 16.64ZM158.318 29.4C153.865 29.4 150.532 28.2 148.318 25.8C146.132 23.3733 145.038 19.88 145.038 15.32C145.038 10.7333 146.212 7.13333 148.558 4.52C150.932 1.88 154.278 0.559998 158.598 0.559998C162.918 0.559998 166.172 1.81333 168.358 4.32C170.572 6.8 171.678 10.3333 171.678 14.92C171.678 19.5067 170.558 23.0667 168.318 25.6C166.105 28.1333 162.772 29.4 158.318 29.4ZM196.108 28.6C197.414 28.6 198.241 28.36 198.588 27.88C198.961 27.4 199.148 26.5867 199.148 25.44V17.68H196.588V16.8H208.108V17.68H206.548V28.96H205.948C205.468 28.2933 204.788 27.96 203.908 27.96C203.534 27.96 202.414 28.2 200.548 28.68C198.708 29.16 197.134 29.4 195.828 29.4C191.481 29.4 188.108 28.2267 185.708 25.88C183.334 23.5333 182.148 20.0133 182.148 15.32C182.148 10.6 183.388 6.96 185.868 4.4C188.374 1.84 191.734 0.559998 195.948 0.559998C197.574 0.559998 199.201 0.773331 200.828 1.2C202.481 1.6 203.441 1.8 203.708 1.8C203.974 1.8 204.174 1.74666 204.308 1.64C204.441 1.50666 204.588 1.29333 204.748 0.999997H205.188L205.508 9.68H204.788C203.481 7.09333 202.161 5.06666 200.828 3.6C199.521 2.10666 198.054 1.36 196.428 1.36C192.348 1.36 190.308 5.34666 190.308 13.32V16.48C190.308 20.48 190.801 23.5067 191.788 25.56C192.801 27.5867 194.241 28.6 196.108 28.6ZM225.483 28.24L222.563 19.6H214.643L211.563 28.24H214.563V29H208.443V28.24H210.323L220.523 0.759997H223.803L233.883 28.24H235.723V29H222.643V28.24H225.483ZM218.763 8.24L215.003 18.72H222.243L218.763 8.24ZM257.432 0.999997L257.832 11.04H257.072C255.899 7.49333 254.859 5.08 253.952 3.8C253.045 2.49333 251.739 1.84 250.032 1.84H249.552V28.16H252.952V29H238.352V28.16H241.752V1.84H241.232C239.525 1.84 238.205 2.52 237.272 3.88C236.339 5.21333 235.312 7.6 234.192 11.04H233.432L233.832 0.999997H257.432ZM278.126 16.64V13.68C278.126 8.8 277.886 5.72 277.406 4.44C276.873 2.97333 276.113 2.06666 275.126 1.72C274.566 1.50666 273.886 1.4 273.086 1.4C272.286 1.4 271.593 1.50666 271.006 1.72C270.446 1.93333 269.979 2.30666 269.606 2.84C269.233 3.37333 268.926 3.93333 268.686 4.52C268.473 5.10666 268.299 5.93333 268.166 7C268.006 8.54666 267.926 10.8267 267.926 13.84V16.72C267.926 19.9733 268.046 22.2933 268.286 23.68C268.553 25.04 268.873 26.0133 269.246 26.6C270.073 27.9067 271.353 28.56 273.086 28.56C275.193 28.56 276.553 27.68 277.166 25.92C277.806 24.1333 278.126 21.04 278.126 16.64ZM273.006 29.4C268.553 29.4 265.219 28.2 263.006 25.8C260.819 23.3733 259.726 19.88 259.726 15.32C259.726 10.7333 260.899 7.13333 263.246 4.52C265.619 1.88 268.966 0.559998 273.286 0.559998C277.606 0.559998 280.859 1.81333 283.046 4.32C285.259 6.8 286.366 10.3333 286.366 14.92C286.366 19.5067 285.246 23.0667 283.006 25.6C280.793 28.1333 277.459 29.4 273.006 29.4Z" stroke="url(#paint0_linear_20_16)" stroke-opacity="0.65" stroke-width="4" mask="url(#path-1-inside-1_20_16)"></path><defs><linearGradient id="paint0_linear_20_16" x1="144.5" y1="-5.48454" x2="144.5" y2="35.1546" gradientUnits="userSpaceOnUse"><stop stop-color="#2CB980"></stop><stop offset="1" stop-color="#2CB980" stop-opacity="0"></stop></linearGradient></defs></svg>